<?xml version="1.0" standalone="no"?>
<!DOCTYPE svg PUBLIC "-//W3C//DTD SVG 20010904//EN"
 "http://www.w3.org/TR/2001/REC-SVG-20010904/DTD/svg10.dtd">
<svg version="1.0" xmlns="http://www.w3.org/2000/svg"
 width="512.000000pt" height="512.000000pt" viewBox="0 0 512.000000 512.000000"
 preserveAspectRatio="xMidYMid meet">
<metadata>
Created by potrace 1.14, written by Peter Selinger 2001-2017
</metadata>
<g transform="translate(0.000000,512.000000) scale(0.100000,-0.100000)"
fill="#000000" stroke="none">
<path d="M2648 5115 c-2 -2 -30 -6 -63 -9 -146 -16 -341 -75 -486 -146 -167
-81 -287 -168 -425 -306 -242 -242 -406 -583 -442 -919 -8 -76 -8 -306 1 -365
41 -289 141 -537 305 -753 24 -32 55 -70 69 -85 l24 -26 -335 -335 -335 -335
-116 115 -115 115 -365 -366 -365 -365 668 -668 668 -668 366 367 366 366
-170 170 c-94 93 -169 171 -167 173 27 30 294 295 298 296 3 1 303 2 666 4
580 2 670 4 739 19 88 19 181 52 237 84 20 11 47 26 60 34 69 38 206 169 750
715 567 569 597 601 614 653 25 77 28 144 9 209 -18 63 -42 101 -93 150 -60
56 -113 75 -216 75 -139 1 -160 -12 -415 -267 -197 -197 -210 -208 -185 -159
56 113 113 305 135 454 13 90 16 294 5 388 -78 702 -618 1262 -1325 1375 -42
7 -356 15 -362 10z"/>
</g>
</svg>
